<?xml version="1.0" encoding="utf-8"?>
<!-- Generator: Adobe Illustrator 22.0.1, SVG Export Plug-In . SVG Version: 6.00 Build 0)  -->
<svg version="1.1" id="Layer_1" xmlns="http://www.w3.org/2000/svg" xmlns:xlink="http://www.w3.org/1999/xlink" x="0px" y="0px"
	 viewBox="0 0 108 24.5" style="enable-background:new 0 0 108 24.5;" xml:space="preserve">
<style type="text/css">
	.st0{fill:#FFFFFF;}
	.st1{fill:#D45215;}
	.st2{fill:#DD540F;}
</style>
<g>
	<path class="st0" d="M9.2,0.5L13,8.1l3.8-7.6h5.1l-6.4,12.1v8.9H6.6v-8.9L0.2,0.5H9.2z"/>
	<path class="st0" d="M36.2,2c1.3,1.2,1.9,2.6,1.9,4.3h-4.9c0-0.8-0.2-1.4-0.7-1.9s-1.1-0.8-1.8-0.8c-0.6,0-1.1,0.2-1.5,0.6
		s-0.6,0.9-0.6,1.4c0,0.7,0.3,1.3,0.8,1.8s1.4,1,2.4,1.3c2.1,0.7,3.8,1.6,5,2.8s1.8,2.6,1.8,4.3c0,1.6-0.6,3-1.9,4.2
		c-1.3,1.2-3.1,1.7-5.6,1.7s-4.3-0.6-5.6-1.7s-2-2.7-2.2-4.8h4.9c0,1,0.2,1.7,0.7,2.3c0.5,0.5,1.1,0.8,2,0.8c0.8,0,1.4-0.2,1.8-0.7
		c0.4-0.4,0.6-1,0.6-1.6c0-0.7-0.3-1.4-0.9-2c-0.6-0.6-1.4-1.1-2.5-1.5c-2.2-0.9-3.8-1.8-4.9-2.8s-1.6-2.3-1.6-3.9
		c0-1.5,0.6-2.8,1.9-4C26.5,0.6,28.4,0,30.8,0C33.1,0.2,34.9,0.8,36.2,2z"/>
	<path class="st1" d="M46.6,0.5v8.7l4.8-8.7H57l-5.8,9.8l6.3,11.2h-5.3l-3.8-7l-1.8,2.9v4.1h-6.9v-21H46.6z"/>
	<path class="st1" d="M59.9,10.6c0.1-1.5,0.8-2.7,2-3.6s2.9-1.3,5-1.3c2.2,0,3.7,0.4,4.7,1.2s1.5,1.9,1.5,3.4v6.1
		c0,0.7,0.1,1.1,0.3,1.3c0.2,0.2,0.6,0.3,1.1,0.4v3.4c-1.7,0-2.9-0.1-3.6-0.3c-0.7-0.2-1.3-0.6-1.6-1.2c-0.3,0.5-0.9,1-1.7,1.3
		c-0.8,0.3-1.8,0.5-2.9,0.5c-1.5,0-2.7-0.4-3.7-1.2s-1.5-1.8-1.5-3.1c0-1.4,0.4-2.6,1.3-3.6c0.9-1,2.2-1.7,3.9-2.1
		c1.4-0.3,2.3-0.6,2.7-0.9c0.5-0.3,0.7-0.6,0.7-0.9c0-0.3-0.1-0.6-0.4-0.8S67,9,66.5,9s-1,0.1-1.3,0.4c-0.3,0.3-0.5,0.7-0.5,1.1
		h-4.8C59.9,10.5,59.9,10.6,59.9,10.6z M64.9,18c0.3,0.2,0.6,0.4,1.1,0.4c0.6,0,1.2-0.2,1.6-0.5s0.7-0.8,0.7-1.4v-2.3l-2.1,0.7
		c-0.5,0.2-0.9,0.4-1.2,0.8c-0.3,0.4-0.4,0.9-0.4,1.4C64.5,17.5,64.6,17.8,64.9,18z"/>
	<path class="st2" d="M89.8,7.1c0.8,0.8,1.2,1.8,1.2,3.1v11.3h-4.9V10.9c0-0.6-0.1-1-0.4-1.2c-0.2-0.3-0.6-0.4-1.1-0.4
		c-0.6,0-1.2,0.3-1.9,0.9c-0.6,0.6-0.9,1.3-0.9,2v9.3H77V5.9h4.9v1.8c0.5-0.6,1.1-1,1.9-1.3s1.7-0.5,2.6-0.5
		C87.9,5.9,89,6.3,89.8,7.1z"/>
	<path class="st2" d="M101.7,6.3c0.6,0.3,1,0.6,1.2,1V5.9h4.9v11.4c0,2.2-0.7,3.9-2,5.1c-1.3,1.3-3,1.9-4.9,1.9
		c-1.6,0-3.1-0.4-4.3-1.2c-1.3-0.8-2-1.8-2.3-3.1h4.5c0.2,0.2,0.4,0.4,0.7,0.6c0.3,0.2,0.7,0.3,1.2,0.3c0.6,0,1.1-0.3,1.5-0.8
		c0.5-0.5,0.7-1.2,0.7-2.1c-0.2,0.4-0.6,0.7-1.2,0.9s-1.1,0.4-1.7,0.4c-1.3,0-2.6-0.5-4-1.6s-2-2.6-2-4.9c0-2.1,0.6-3.8,1.7-5
		S98.2,6,99.8,6C100.5,5.9,101.2,6.1,101.7,6.3z M99.5,10.2c-0.4,0.6-0.6,1.4-0.6,2.5c0,1.2,0.2,2,0.6,2.6s0.9,0.8,1.4,0.8
		s1-0.3,1.4-0.8s0.6-1.4,0.6-2.5c0-1.2-0.2-2.1-0.6-2.6s-0.9-0.9-1.4-0.9C100.3,9.3,99.8,9.6,99.5,10.2z"/>
</g>
</svg>
